#N canvas 167 123 1299 624 12;
#X declare -lib mjlib;
#X obj 307 99 morse;
#X obj 295 126 bng 15 250 50 0 ponto empty empty 0 -6 0 8 -262144 -1
-1;
#X obj 326 129 bng 15 250 50 0 traco empty empty 0 -6 0 8 -262144 -1
-1;
#X obj 388 76 bng 15 250 50 0 empty empty empty 0 -6 0 8 -262144 -1
-1;
#X obj 104 140 bng 15 250 50 0 empty empty empty 0 -6 0 8 -262144 -1
-1;
#X obj 106 117 metro 100;
#X obj 314 524 dac~;
#X obj 304 445 *~, f 4;
#X obj 343 444 hsl 128 22 0.01 1 1 0 empty empty volume 9 9 1 10 -262144
-1 -1 10100 0;
#X obj 179 242 *~;
#X obj 61 594 writesf~ 2;
#X msg 23 500 start;
#X msg 26 523 stop;
#X obj 191 91 r dot;
#X msg 377 33 msg a e i o u;
#X msg 336 5 msg manifesto desaceleracionista infinitesimal;
#X obj 311 158 s pulso;
#N canvas 1 78 450 300 tom_referencia 0;
#X obj 55 170 osc~ 440;
#X obj 58 142 hsl 128 22 10 6000 0 0 empty empty frequency 9 9 1 10
-262144 -1 -1 912 1;
#X obj 55 87 loadbang;
#X msg 132 107 880;
#X msg 55 114 440;
#X msg 179 114 329.628;
#X obj 65 216 outlet~;
#X connect 0 0 6 0;
#X connect 1 0 0 0;
#X connect 2 0 4 0;
#X connect 3 0 1 0;
#X connect 4 0 1 0;
#X connect 5 0 1 0;
#X restore 55 191 pd tom_referencia;
#N canvas 1 78 450 522 envelope_ponto_traco 0;
#X obj 118 308 line~;
#X obj 57 182 delay 50;
#X obj 57 162 bng 15 250 50 0 empty ponto empty 0 -6 0 8 -262144 -1
-1;
#X floatatom 146 184 5 0 0 0 - - -, f 5;
#X obj 242 181 delay 50;
#X obj 242 161 bng 15 250 50 0 empty traco empty 0 -6 0 8 -262144 -1
-1;
#X floatatom 328 182 5 0 0 0 - - -, f 5;
#X msg 17 222 1 1;
#X msg 57 222 0 1;
#X msg 202 221 1 1;
#X msg 244 221 0 1;
#X obj 132 156 r dot;
#X obj 317 154 r dash;
#X text 56 140 dot;
#X text 237 141 dash;
#X obj 137 350 outlet~;
#X connect 0 0 15 0;
#X connect 1 0 8 0;
#X connect 2 0 1 0;
#X connect 2 0 7 0;
#X connect 4 0 10 0;
#X connect 5 0 4 0;
#X connect 5 0 9 0;
#X connect 7 0 0 0;
#X connect 8 0 0 0;
#X connect 9 0 0 0;
#X connect 10 0 0 0;
#X connect 11 0 1 1;
#X connect 11 0 3 0;
#X connect 12 0 4 1;
#X connect 12 0 6 0;
#X restore 205 206 pd envelope_ponto_traco;
#X obj 106 69 tgl 40 0 empty empty empty 17 7 0 10 -203904 -16662 -1
1 1;
#N canvas 515 92 662 505 samples 0;
#X obj 173 372 soundfiler;
#X floatatom 175 403 5 0 0 0 - - -, f 5;
#N canvas 0 50 450 250 (subpatch) 0;
#X array bd 21116 float 2;
#X coords 0 1 21116 -1 50 30 1 0 0;
#X restore 173 311 graph;
#X obj 28 264 r pulso;
#X obj 60 336 + 1;
#X floatatom 62 365 5 0 0 0 - - -, f 5;
#X symbolatom 16 424 10 0 0 0 - - -, f 10;
#X obj 13 399 makefilename bd0%d.wav;
#X msg 172 345 read -resize \$1 bd;
#X obj 171 134 soundfiler;
#X floatatom 173 165 5 0 0 0 - - -, f 5;
#N canvas 0 50 450 250 (subpatch) 0;
#X array hh 46592 float 2;
#X coords 0 1 46592 -1 50 30 1 0 0;
#X restore 171 73 graph;
#X obj 26 26 r pulso;
#X obj 58 98 + 1;
#X floatatom 60 127 5 0 0 0 - - -, f 5;
#X symbolatom 14 186 10 0 0 0 - - -, f 10;
#X obj 11 161 makefilename hh0%d.wav;
#X msg 170 107 read -resize \$1 hh;
#X obj 496 221 soundfiler;
#X floatatom 498 252 5 0 0 0 - - -, f 5;
#N canvas 0 50 450 250 (subpatch) 0;
#X array cx 111912 float 2;
#X coords 0 1 111912 -1 50 30 1 0 0;
#X restore 496 160 graph;
#X obj 351 113 r pulso;
#X obj 383 185 + 1;
#X floatatom 385 214 5 0 0 0 - - -, f 5;
#X symbolatom 339 273 10 0 0 0 - - -, f 10;
#X obj 336 248 makefilename cx0%d.wav;
#X msg 495 194 read -resize \$1 cx;
#X obj 353 146 random 5;
#X obj 30 297 random 4;
#X obj 28 59 random 3;
#X connect 0 0 1 0;
#X connect 3 0 28 0;
#X connect 4 0 5 0;
#X connect 5 0 7 0;
#X connect 7 0 6 0;
#X connect 7 0 8 0;
#X connect 8 0 0 0;
#X connect 9 0 10 0;
#X connect 12 0 29 0;
#X connect 13 0 14 0;
#X connect 14 0 16 0;
#X connect 16 0 15 0;
#X connect 16 0 17 0;
#X connect 17 0 9 0;
#X connect 18 0 19 0;
#X connect 21 0 27 0;
#X connect 22 0 23 0;
#X connect 23 0 25 0;
#X connect 25 0 24 0;
#X connect 25 0 26 0;
#X connect 26 0 18 0;
#X connect 27 0 22 0;
#X connect 28 0 4 0;
#X connect 29 0 13 0;
#X restore 794 313 pd samples;
#X text 22 450 grava a sessao;
#X msg 23 476 open manifesto.wav;
#X text 10 474 1;
#N canvas 1 78 450 300 cx 0;
#X obj 14 131 tabplay~ cx;
#X msg 34 95 0 88200;
#X obj 52 174 *~;
#X obj 114 131 hsl 60 22 0.01 1 1 0 empty empty volume 9 9 1 10 -260097
-262144 -1 5900 0;
#X obj 38 70 inlet;
#X obj 56 219 outlet~;
#X connect 0 0 2 0;
#X connect 1 0 0 0;
#X connect 2 0 5 0;
#X connect 3 0 2 1;
#X connect 4 0 1 0;
#X coords 0 -1 1 1 85 60 1 100 100;
#X restore 574 243 pd cx;
#N canvas 1 78 450 300 bd 0;
#X msg 34 95 0 88200;
#X obj 52 174 *~;
#X obj 114 131 hsl 60 22 0.01 1 1 0 empty empty volume 9 9 1 10 -159808
-262144 -1 5900 0;
#X obj 38 70 inlet;
#X obj 56 219 outlet~;
#X obj 14 131 tabplay~ bd;
#X connect 0 0 5 0;
#X connect 1 0 4 0;
#X connect 2 0 1 1;
#X connect 3 0 0 0;
#X connect 5 0 1 0;
#X coords 0 -1 1 1 85 60 1 100 100;
#X restore 672 241 pd bd;
#N canvas 1 78 450 300 hh 0;
#X msg 34 95 0 88200;
#X obj 52 174 *~;
#X obj 114 131 hsl 60 22 0.01 1 1 0 empty empty volume 9 9 1 10 -4160
-203904 -1 5900 0;
#X obj 38 70 inlet;
#X obj 56 219 outlet~;
#X obj 14 131 tabplay~ hh;
#X connect 0 0 5 0;
#X connect 1 0 4 0;
#X connect 2 0 1 1;
#X connect 3 0 0 0;
#X connect 5 0 1 0;
#X coords 0 -1 1 1 85 60 1 100 100;
#X restore 763 240 pd hh;
#X obj 577 347 *~;
#X obj 625 349 hsl 128 22 0.01 1 1 0 empty empty volume 9 9 1 10 -262144
-1 -1 11200 0;
#X obj 581 220 bng 15 250 50 0 empty ponto empty 0 -6 0 8 -262144 -1
-1;
#X obj 752 214 bng 15 250 50 0 empty traco empty 0 -6 0 8 -262144 -1
-1;
#X text 578 199 dot (ponto .);
#X text 749 193 dash (traco -);
#N canvas 1 78 450 300 pulso 0;
#X obj 51 116 hsl 128 15 10 1000 0 0 empty empty empty -2 -6 0 8 -262144
-1 -1 513 1;
#X text 82 90 speed;
#X floatatom 49 146 5 0 0 0 - - -, f 5;
#X obj 33 174 s dot;
#X obj 76 197 s dash;
#X obj 76 173 * 3;
#X msg 48 54 50;
#X obj 49 28 loadbang;
#X msg 13 83 100;
#X msg 90 60 70;
#X obj 190 68 inlet;
#X connect 0 0 2 0;
#X connect 2 0 3 0;
#X connect 2 0 5 0;
#X connect 5 0 4 0;
#X connect 6 0 0 0;
#X connect 7 0 6 0;
#X connect 8 0 0 0;
#X connect 9 0 0 0;
#X connect 10 0 0 0;
#X restore 193 69 pd pulso;
#X floatatom 195 42 5 0 0 0 - - -, f 5;
#X msg 161 16 50;
#X msg 207 15 75;
#X msg 252 21 100;
#X text 152 475 cria arquivo;
#X text 86 502;
#X text 71 503 2 grava;
#X text 66 522 3 para, f 12;
#X text 685 5 inicia "transmissao" clicando a mensagem;
#X obj 237 299 *~, f 4;
#X obj 279 250 hsl 128 22 0.01 1 1 0 empty empty volume 9 9 1 10 -262144
-1 -1 10900 0;
#X obj 1052 10 declare -lib mjlib;
#X connect 0 0 1 0;
#X connect 0 1 2 0;
#X connect 0 2 3 0;
#X connect 1 0 16 0;
#X connect 2 0 16 0;
#X connect 5 0 0 0;
#X connect 5 0 4 0;
#X connect 7 0 6 0;
#X connect 7 0 6 1;
#X connect 7 0 10 0;
#X connect 7 0 10 1;
#X connect 8 0 7 1;
#X connect 9 0 43 0;
#X connect 11 0 10 0;
#X connect 12 0 10 0;
#X connect 13 0 5 1;
#X connect 14 0 0 0;
#X connect 15 0 0 0;
#X connect 17 0 9 0;
#X connect 18 0 9 1;
#X connect 19 0 5 0;
#X connect 22 0 10 0;
#X connect 24 0 27 0;
#X connect 25 0 27 0;
#X connect 26 0 27 0;
#X connect 27 0 7 0;
#X connect 28 0 27 1;
#X connect 29 0 24 0;
#X connect 30 0 25 0;
#X connect 30 0 26 0;
#X connect 34 0 33 0;
#X connect 35 0 34 0;
#X connect 36 0 34 0;
#X connect 37 0 34 0;
#X connect 43 0 7 0;
#X connect 44 0 43 1;
